<?xml version="1.0" ?><!DOCTYPE svg  PUBLIC '-//W3C//DTD SVG 1.1//EN'  'http://www.w3.org/Graphics/SVG/1.1/DTD/svg11.dtd'><svg enable-background="new 0 0 128 128" id="Слой_1" version="1.1" viewBox="0 0 128 128" xml:space="preserve" xmlns="http://www.w3.org/2000/svg" xmlns:xlink="http://www.w3.org/1999/xlink"><g><g><g><g><path d="M99,54c0-20.2-17-36.3-37.5-34.9C44.1,20.3,30,34.5,29.1,52c-0.8,13.7,6.4,25.9,17.3,32.3      c2.5,1.4,9,11.1,7.5,17.7c-0.2,1-0.3,2.1-0.2,3.3l20-1c0-0.5,0-1.1-0.1-1.6c-1.2-7.2,5.4-16.8,8-18.3C92,78.3,99,67,99,54z" fill="#FEE444"/></g></g></g><g><g><g><g><g><path d="M59.9,102c1.5-6.6-5-16.3-7.5-17.7C41.5,77.9,34.3,65.7,35.1,52c1-17.3,14.8-31.4,32-32.8        c-1.8-0.2-3.6-0.2-5.5,0C44.1,20.3,30,34.5,29.1,52c-0.8,13.7,6.4,25.9,17.3,32.3c2.5,1.4,9,11.1,7.5,17.7        c-0.2,1-0.3,2.1-0.2,3.3l6-0.3C59.6,103.9,59.6,102.9,59.9,102z" fill="#FFFFFF"/></g></g></g></g><g><g><g><g><path d="M98.4,57.2L85.3,47.2l5.5-15.7l1.3,0l0,1.6l1.2,0.4l-4.4,12.6L99.1,54h1.4c0,0.3,0,0.5,0,0.8l0,1.1        L98.4,57.2z" fill="#FFFFFF"/></g></g></g><g><g><g><polygon fill="#FFFFFF" points="55.2,88.8 54.2,87.5 53.2,87.9 48.5,75.4 35.7,75.9 35.5,72.9 50.6,72.3 56.4,87.8       "/></g></g></g><g><g><g><polygon fill="#FFFFFF" points="73.2,88.7 72.1,87.9 77.4,72.1 94,72.3 94.3,73.4 92.9,73.8 92.8,75.3 79.5,75.2 75.3,87.8         74.2,87.4       "/></g></g></g><g><g><g><path d="M73.5,66.1h-19L48.6,48L64,36.9L79.4,48L73.5,66.1z M56.7,63.1h14.6l4.5-13.9L64,40.6l-11.8,8.6        L56.7,63.1z" fill="#FFFFFF"/></g></g></g><g><g><g><rect fill="#FFFFFF" height="3" transform="matrix(0.5545 0.8322 -0.8322 0.5545 91.1308 -31.9679)" width="10.9" x="70" y="67.6"/></g></g></g><g><g><g><rect fill="#FFFFFF" height="11" transform="matrix(0.8371 0.5471 -0.5471 0.8371 46.4329 -17.4885)" width="3" x="51.1" y="63.7"/></g></g></g><g><g><g><rect fill="#FFFFFF" height="3" transform="matrix(4.014914e-03 1 -1 4.014914e-03 97.8237 -30.0185)" width="9.2" x="59.4" y="32.6"/></g></g></g><g><g><g><rect fill="#FFFFFF" height="9.6" transform="matrix(0.2057 0.9786 -0.9786 0.2057 111.985 -42.7433)" width="3" x="80.8" y="42.8"/></g></g></g><g><g><g><polygon fill="#FFFFFF" points="29.7,56.7 27.5,55.1 27.5,54 29.1,54 28.8,53.6 39.7,45.9 35.7,33.2 36.2,33 36.2,31.2         38.2,31.3 43.2,47.1       "/></g></g></g><g><g><g><rect fill="#FFFFFF" height="3" transform="matrix(0.9734 0.229 -0.229 0.9734 12.1082 -9.2498)" width="9.2" x="41.3" y="46.1"/></g></g></g><g><g><g><polygon fill="#FFFFFF" points="64,31.3 51.5,22.2 53.3,19.8 64,27.6 74.8,19.8 75.6,21 77.1,20.5 77.4,21.6 76.5,22.3               "/></g></g></g></g></g><g><g><g><polygon fill="#C88B79" points="87.5,119.3 40.2,119.3 45.5,105.3 82.8,105.3     "/></g></g></g><g><g><g><polygon fill="#F9F071" points="74,114.8 54,114.8 55,109.8 73,109.8     "/></g></g></g><g><g><g><path d="M73.2,110.8l-0.2-1H55l-1,5h1.2l0,0c0.5-2.3,2.5-4,4.9-4H73.2z" fill="#FFFFFF"/></g></g></g><g><g><g><polygon fill="#FFFFFF" points="45.5,105.3 40.2,119.3 46.2,119.3 51.5,105.3     "/></g></g></g><g><g><g><path d="M87.5,120.8C87.5,120.8,87.5,120.8,87.5,120.8H40.2c-0.5,0-1-0.2-1.2-0.6s-0.3-0.9-0.2-1.4l5.3-14      c0.2-0.6,0.8-1,1.4-1h37.3c0.6,0,1.2,0.4,1.4,1l4.7,13.8c0.1,0.2,0.2,0.4,0.2,0.7C89,120.1,88.4,120.8,87.5,120.8z M42.4,117.8      h43l-3.7-11H46.5L42.4,117.8z" fill="#62355C"/></g></g></g><g><g><g><path d="M53.6,106.7c-0.8,0-1.4-0.6-1.5-1.4c-0.1-1.3,0-2.5,0.2-3.7c1.4-6-4.9-15-6.8-16.1      c-11.9-7-18.8-19.8-18.1-33.6c1-18.3,15.6-33,33.8-34.3c10.2-0.7,20,2.7,27.5,9.7c7.4,6.9,11.6,16.6,11.6,26.7      c0,13-7,25.1-18.3,31.6c-1.9,1.1-8.4,10.2-7.3,16.8c0.1,0.6,0.1,1.2,0.1,1.8c0,0.8-0.7,1.5-1.5,1.5s-1.5-0.7-1.5-1.5      c0-0.5,0-0.9-0.1-1.4c-1.2-7.7,5.6-18,8.7-19.9c10.3-6,16.8-17.1,16.8-29c0-9.3-3.9-18.2-10.7-24.5C80,23.1,71,19.9,61.6,20.6      c-16.8,1.2-30.1,14.7-31.1,31.5c-0.7,12.7,5.6,24.5,16.6,30.9c3.1,1.8,9.8,12.2,8.2,19.4c-0.2,0.9-0.3,1.8-0.2,2.8      c0.1,0.8-0.5,1.6-1.3,1.6C53.7,106.7,53.7,106.7,53.6,106.7z" fill="#62355C"/></g></g></g><g><g><g><path d="M64,90.5c-20.1,0-36.5-16.4-36.5-36.5c0-0.8,0.7-1.5,1.5-1.5s1.5,0.7,1.5,1.5c0,18.5,15,33.5,33.5,33.5      s33.5-15,33.5-33.5c0-0.8,0.7-1.5,1.5-1.5s1.5,0.7,1.5,1.5C100.5,74.1,84.1,90.5,64,90.5z" fill="#62355C"/></g></g></g></g></svg>